HIERARCHY
ROOT Hips
{
  OFFSET 265.287 66.7526 -254.649
  CHANNELS 6 Xposition Yposition Zposition Zrotation Xrotation Yrotation
  JOINT LeftUpLeg
  {
    OFFSET 8.64259 1.95398 -2.38835
    CHANNELS 3 Zrotation Xrotation Yrotation
    JOINT LeftLeg
    {
      OFFSET 43.7702 0 0
      CHANNELS 3 Zrotation Xrotation Yrotation
      JOINT LeftFoot
      {
        OFFSET 40.6238 0 0
        CHANNELS 3 Zrotation Xrotation Yrotation
        JOINT LeftToeBase
        {
          OFFSET 12.7242 0 0
          CHANNELS 3 Zrotation Xrotation Yrotation
          End Site
          {
            OFFSET 0 0 0
          }
        }
      }
    }
  }
  JOINT RightUpLeg
  {
    OFFSET -8.2249 1.95398 -2.59336
    CHANNELS 3 Zrotation Xrotation Yrotation
    JOINT RightLeg
    {
      OFFSET 43.5653 0 0
      CHANNELS 3 Zrotation Xrotation Yrotation
      JOINT RightFoot
      {
        OFFSET 40.6238 0 0
        CHANNELS 3 Zrotation Xrotation Yrotation
        JOINT RightToeBase
        {
          OFFSET 12.7242 0 0
          CHANNELS 3 Zrotation Xrotation Yrotation
          End Site
          {
            OFFSET 0 0 0
          }
        }
      }
    }
  }
  JOINT Spine
  {
    OFFSET 0.165834 0.87714 6.61349
    CHANNELS 3 Zrotation Xrotation Yrotation
    JOINT Spine1
    {
      OFFSET 7.38963 1.71661e-005 0
      CHANNELS 3 Zrotation Xrotation Yrotation
      JOINT Spine2
      {
        OFFSET 11.9445 1.14441e-005 0
        CHANNELS 3 Zrotation Xrotation Yrotation
        JOINT Spine3
        {
          OFFSET 14.7254 4.19617e-005 0
          CHANNELS 3 Zrotation Xrotation Yrotation
          JOINT Spine4
          {
            OFFSET 10.9679 0 0
            CHANNELS 3 Zrotation Xrotation Yrotation
            JOINT RightShoulder
            {
              OFFSET 2.46616 -1.6653 3.69651
              CHANNELS 3 Zrotation Xrotation Yrotation
              JOINT RightArm
              {
                OFFSET 13.0012 0 0
                CHANNELS 3 Zrotation Xrotation Yrotation
                JOINT RightForeArm
                {
                  OFFSET 28.7848 1.52588e-005 0
                  CHANNELS 3 Zrotation Xrotation Yrotation
                  JOINT RightHand
                  {
                    OFFSET 26.5688 1.52588e-005 0
                    CHANNELS 3 Zrotation Xrotation Yrotation
                    End Site
                    {
                      OFFSET 0 0 0
                    }
                  }
                }
              }
            }
            JOINT LeftShoulder
            {
              OFFSET 2.38034 -1.29275 -3.7523
              CHANNELS 3 Zrotation Xrotation Yrotation
              JOINT LeftArm
              {
                OFFSET 16.3182 6.10351e-005 0
                CHANNELS 3 Zrotation Xrotation Yrotation
                JOINT LeftForeArm
                {
                  OFFSET 27.0901 0 0
                  CHANNELS 3 Zrotation Xrotation Yrotation
                  JOINT LeftHand
                  {
                    OFFSET 24.5451 1.52588e-005 0
                    CHANNELS 3 Zrotation Xrotation Yrotation
                    End Site
                    {
                      OFFSET 0 0 0
                    }
                  }
                }
              }
            }
            JOINT Neck
            {
              OFFSET 5.0226 -0.0266342 0
              CHANNELS 3 Zrotation Xrotation Yrotation
              JOINT Head
              {
                OFFSET 6.69364 2.86102e-005 0
                CHANNELS 3 Zrotation Xrotation Yrotation
                End Site
                {
                  OFFSET 0 0 0
                }
              }
            }
          }
        }
      }
    }
  }
}
MOTION
Frames:	18
Frame Time:	0.0416667
-110.08 93.8395 115.776 96.4587 41.2829 87.6359 -178.164 20.3668 87.0717 -30.585 8.83897 1.44627 58.3841 2.88078 9.43559 51.4948 -6.67295 3.2804 177.08 6.69844 92.3427 -30.9255 -5.38767 -0.649356 70.1467 1.13339 14.297 29.4197 -0.161299 0.58704 0.142683 8.52667 -90.967 9.81533 -0.153812 -1.90617 -1.85699 -0.237534 -1.89757 -24.3813 0.426097 -1.8643 -4.36867 0.426083 -1.86431 98.08 -57.2876 -88.0014 16.8155 -5.91264 -12.0653 -1.98214 -16.7606 -19.9691 -11.3287 -0.709336 2.17347 -84.2557 -55.4664 87.7376 -21.4532 14.428 -14.122 3.23425 31.0314 -8.52092 3.3347 0.0244897 -2.07177 3.32272 3.46446 0.189898 -16.8507 2.18925 10.2716 
-104.545 93.4567 110.614 94.8402 41.0056 89.2881 -176.677 22.5764 87.092 -8.27831 8.98994 0.915544 51.105 -2.10612 6.14332 45.4128 -5.09599 0.71262 176.929 2.35738 92.7276 -29.7941 -4.9599 -0.856073 71.5793 0.174401 14.7567 34.1706 -0.883037 1.53565 0.406967 8.53637 -90.9751 9.80029 0.369513 -1.96381 -1.87211 0.282724 -1.97818 -24.3976 0.942548 -1.76208 -4.385 0.942547 -1.76209 97.2996 -56.8484 -89.1492 15.8056 -6.77061 -14.8556 -2.00577 -15.7221 -21.6681 -12.4055 -0.747274 1.87494 -83.7447 -55.7832 88.4949 -21.9661 14.4817 -8.86281 4.19197 30.3171 -10.541 3.85993 -0.0282271 -3.22552 2.17811 2.90746 0.961592 -15.2393 1.74769 9.4799 
-98.2374 91.5777 105.072 93.5068 39.3589 90.7489 -175.832 27.89 88.3339 -4.20593 7.96403 0.965243 55.5235 -1.68952 5.75625 46.6543 -5.42131 1.56995 177.228 -0.861699 93.3876 -32.6989 -5.56382 -1.81113 75.3755 -2.16512 13.641 39.8637 -1.62462 1.57291 0.769205 8.59455 -90.9051 9.69094 1.12433 -1.88177 -1.98097 1.04044 -1.92941 -24.5128 1.63783 -1.45698 -4.5001 1.63784 -1.45698 95.9274 -56.7286 -91.126 14.4393 -8.83316 -17.8941 -2.10901 -15.5968 -24.2483 -13.7865 -0.803012 1.6113 -83.007 -56.2012 89.5765 -23.2416 13.8925 -4.03877 5.60698 27.8252 -13.3088 4.13182 0.0149379 -2.51317 1.27459 2.60573 2.3992 -13.7005 1.48859 8.15265 
-91.1646 89.5106 98.8225 90.8537 37.3903 91.8749 -176.251 31.3446 89.4003 -5.97463 9.60606 1.54551 54.2607 -1.49256 7.48755 46.9221 -5.51235 1.33595 177.225 -4.05284 92.4798 -34.5031 -6.56927 -3.39539 75.8886 -2.42451 14.8359 46.9983 -2.65063 0.077407 1.08848 8.66068 -90.5965 9.56257 1.90113 -1.3311 -2.10775 1.84073 -1.41348 -24.6521 2.21326 -0.698013 -4.63948 2.21325 -0.698016 95.0064 -56.9568 -92.4173 12.8679 -12.5313 -22.7082 -2.47948 -16.2089 -27.908 -14.1301 -0.795581 1.39255 -82.5687 -56.647 90.2308 -24.371 13.0788 -1.47941 5.96599 26.9755 -13.5143 4.41256 -0.0105927 -3.01839 1.96629 2.46422 2.44575 -11.8241 1.44817 8.24203 
-83.6793 87.8703 91.4969 85.5012 40.1043 92.8873 -177.011 39.0553 86.7495 -19.0623 9.03635 0.525515 48.6109 -3.66443 8.27134 47.695 -5.654 2.80228 176.501 -5.97853 90.0041 -34.0493 -7.64173 -4.14017 68.7797 0.422126 17.2421 56.9774 -3.96594 0.561553 1.12657 8.6289 -89.9942 9.62055 2.24865 -0.166714 -2.04844 2.23913 -0.265579 -24.5989 2.19474 0.517145 -4.58621 2.19475 0.517144 96.0736 -57.7977 -90.8094 14.7429 -14.7866 -25.5961 -3.2656 -15.1565 -32.0145 -16.9102 -1.03182 1.85908 -83.2559 -54.2058 89.0462 -26.4658 12.7238 -1.39464 4.98669 26.7994 -11.3559 4.93303 -0.0350248 -3.52343 6.80608 1.47526 1.6716 -12.3229 0.624376 6.62983 
-76.0833 86.5305 84.455 80.9987 45.5904 92.7324 -174.096 45.1103 80.4475 -36.0045 14.5314 -2.12118 52.0531 -2.3065 15.6168 43.867 -4.74071 -2.89035 173.238 -3.58036 85.743 -40.27 -4.36235 -1.86205 52.5976 5.25346 22.6034 57.1112 -2.92341 8.50014 1.21445 9.27738 -89.4148 8.30713 2.68152 0.995762 -3.36135 2.72273 0.876691 -25.9103 2.25827 1.75588 -5.89763 2.25827 1.75588 95.7068 -56.2751 -91.4915 17.0672 -16.6092 -26.8658 -1.91256 -8.87244 -36.6927 -18.6797 -1.06114 1.40731 -84.3522 -52.3455 87.2631 -26.0527 12.4176 -6.3844 3.28337 19.5119 -8.85428 6.1423 -0.197308 -5.80451 16.3573 -1.24194 4.52083 -12.6611 -2.56765 1.03999 
-68.177 84.5381 77.1624 79.093 51.11 93.561 -172.95 45.7459 77.1521 -51.0981 17.8065 -2.39552 65.341 6.17087 20.7718 40.7179 -3.68721 -3.08722 171.167 8.25729 84.6147 -66.001 -9.44051 -0.790683 54.5403 3.23886 11.7046 52.53 -3.75557 -3.18604 0.956517 9.92387 -89.3511 7.01313 2.18874 1.18564 -4.65641 2.23879 1.08813 -27.1973 1.73125 1.78868 -7.18471 1.73126 1.78868 95.5552 -56.197 -91.7177 17.2487 -15.8072 -33.111 -3.32466 -13.3522 -33.9443 -19.6352 -1.11192 1.38546 -86.6121 -53.1964 84.0728 -23.5449 13.1166 -8.07299 1.7744 8.5921 -11.0248 9.86315 -0.342406 -6.74479 18.4157 -3.35666 5.40372 -9.99625 -4.83079 -0.458409 
-60.7049 82.7389 69.8707 81.1992 53.6556 90.5825 -175.239 41.1638 75.1469 -59.8786 19.257 -1.25578 70.9565 12.7706 30.2748 43.2683 -4.54852 -3.08754 174.411 29.7864 86.3736 -85.1364 -0.279732 -2.96044 70.1823 -3.16671 16.2701 53.1495 -3.67283 -1.65428 0.793241 10.5601 -89.3788 5.7386 1.84472 1.17134 -5.9315 1.89449 1.089 -28.4689 1.40744 1.67159 -8.45623 1.40745 1.67159 93.6874 -54.4946 -94.6587 16.5412 -12.14 -41.8913 0.841182 -9.24725 -26.1819 -20.3966 -1.01317 0.526305 -90.1105 -55.7445 79.4983 -11.95 13.4919 -19.8498 -0.220087 4.87455 -11.7479 12.4933 -0.34166 -6.25019 21.7136 -4.74708 5.11239 -7.63088 -6.31793 1.78685 
-53.617 82.8913 63.2215 88.9565 59.2485 88.3524 179.328 31.7922 80.1064 -65.0246 22.6247 1.55807 72.776 16.0845 33.8728 48.148 -6.02384 -0.739519 178.938 47.9922 84.7003 -75.1676 3.30886 -2.97172 75.7444 -4.86418 15.1085 54.0711 -3.67919 -0.39984 0.483619 10.8422 -90.0973 5.19614 0.92648 -0.214035 -6.47446 0.916164 -0.254609 -29.0127 0.947979 0.074328 -9.00008 0.947971 0.0743321 93.6496 -47.6417 -95.8157 14.4505 -3.39168 -57.0687 1.43667 -7.70623 -16.9685 -17.5056 -0.77504 -0.0323923 -91.3045 -49.6118 76.4508 0.722804 5.17567 -39.3718 1.47159 6.43929 -13.8764 18.2896 -0.120393 -4.60013 22.5966 -5.77564 1.33233 -8.52186 -6.27016 5.57129 
-44.9758 84.9626 56.0427 94.505 67.8695 88.3823 173.378 21.8111 87.7368 -66.5948 26.0617 6.165 73.4655 15.1331 28.2996 53.0698 -6.92864 4.78919 -174.841 56.4491 74.6043 -46.3659 -6.66639 -2.48394 61.6179 2.85936 18.8015 53.6589 -3.43684 1.41399 0.280018 10.4141 -90.8083 6.04443 0.21924 -1.59641 -5.62749 0.14878 -1.60451 -28.156 0.688833 -1.45677 -8.14332 0.688839 -1.45677 96.6196 -34.5339 -92.7924 8.28426 9.71653 -63.5764 -0.693143 -2.26206 -12.6626 -10.8733 -0.418394 -0.735393 -90.5116 -39.1752 75.0323 5.32905 -10.638 -58.9498 9.83586 9.21651 -25.7523 20.9693 -0.0824541 -4.33075 20.8887 -8.74257 -4.38605 -12.0415 -7.45729 5.42998 
-32.7116 92.2155 44.2932 86.4222 77.8202 101.046 176.848 8.25804 99.2397 -48.9807 33.0803 13.4967 61.6464 5.47263 9.38691 58.1036 -8.23185 5.11689 -178.578 61.227 68.7926 -40.4869 -7.63571 0.554232 52.775 5.91409 18.9222 37.6408 -1.20459 0.842771 -0.273734 9.2822 -91.5078 8.28011 -1.20854 -2.91005 -3.39343 -1.33539 -2.85411 -25.9026 -0.278599 -3.1385 -5.88993 -0.278599 -3.1385 98.5703 -25.3132 -90.1662 -6.94739 19.5374 -50.8957 -2.29738 -2.43512 -18.8775 -8.5025 -0.232015 -2.06576 -87.6615 -30.3303 77.7018 -2.2726 -22.3995 -70.1997 25.459 7.51328 -54.5791 18.2128 -0.235597 -5.01473 12.2299 -10.6018 -6.51691 -12.0892 -8.97286 2.80452 
-18.4272 102.452 27.9854 61.9068 80.8213 122.532 -169.898 -3.86472 106.768 -18.2315 27.6203 10.048 24.472 -6.60784 -18.5993 51.8154 -7.03509 6.0245 178.047 58.2946 64.9947 -33.5651 -8.29108 1.76993 43.7992 9.08279 20.8299 22.3867 1.24266 -1.99389 -0.826848 8.00957 -91.4074 10.8215 -2.29617 -2.59265 -0.84978 -2.40801 -2.48913 -23.3714 -1.41126 -3.16242 -3.35873 -1.41126 -3.16242 99.2936 -22.6571 -88.8119 -15.4058 20.8759 -35.5163 -0.000549402 9.80186 -18.8743 -6.68557 -0.0887041 -4.24542 -85.5392 -31.4844 82.0308 -3.60837 -31.2595 -64.4027 28.5206 1.34257 -78.9757 30.8099 0.921247 -1.91771 -0.753717 -9.71725 -7.81898 -11.6696 -8.71275 1.04338 
-4.40817 107.074 13.0341 74.5727 85.912 106.001 -176.602 -4.83982 107.17 -47.6722 27.3964 13.3775 36.2199 -4.87931 -11.4997 36.0291 -2.60255 9.85677 173.671 47.175 63.4142 -23.0972 -3.70772 1.61858 40.3387 10.4653 19.5094 23.6132 1.46336 -4.4702 -0.885817 8.06769 -91.127 10.7155 -2.28308 -2.02615 -0.954846 -2.37002 -1.92371 -23.4861 -1.56882 -2.61841 -3.4734 -1.56882 -2.61841 100.131 -20.0249 -87.1108 -26.4333 8.51385 -9.32779 3.31331 23.5082 -8.53386 -4.46462 0.0373633 -6.94321 -82.4601 -27.1685 87.3473 13.5773 -35.3518 -37.4076 31.5423 5.6496 -69.7918 31.211 1.29869 0.209476 -9.11668 -10.7683 -10.1914 -6.3263 -10.1745 -0.273146 
10.0879 105.187 -2.48919 87.1855 87.264 89.7749 175.918 -5.12919 105.371 -71.695 20.609 11.3989 38.6373 -5.07107 -6.57225 33.3995 -1.91894 7.07386 171.461 34.8553 63.5416 -7.64787 4.65728 0.137434 30.3218 12.4801 27.062 34.7644 -0.693013 -2.83257 -0.935579 8.2122 -90.9021 10.4319 -2.2772 -1.59194 -1.23794 -2.34504 -1.49016 -23.7752 -1.69358 -2.20266 -3.76252 -1.69359 -2.20267 100.661 -23.8442 -85.5769 -25.0839 -3.89173 18.0792 3.66917 3.57814 0.00201989 -5.05293 -0.060353 -4.2419 -80.4326 -19.9559 90.8041 22.3374 -8.1666 -3.81913 13.4866 11.0807 -29.7282 21.8445 0.617797 -1.06915 -12.0196 -11.4383 -10.2149 -3.00884 -11.1321 -0.906996 
24.8292 97.4709 -17.9326 76.9788 86.6614 96.726 170.477 -4.42924 102.193 -89.6427 16.2829 6.44343 42.5995 -4.2715 -2.12593 36.8369 -2.72219 5.84792 169.279 30.2055 65.4544 -12.6623 9.18412 1.43364 31.0861 12.9923 24.3123 44.5553 -2.51778 -2.81108 -1.24095 8.13615 -90.5412 10.5889 -2.72048 -0.819492 -1.07951 -2.75389 -0.6989 -23.6302 -2.34845 -1.59958 -3.6175 -2.34845 -1.59958 103.621 -31.5679 -79.2694 -7.86942 -6.0179 39.439 3.00335 3.95573 -0.122618 -4.48431 -0.0338815 -4.81751 -80.7196 -23.9496 90.5694 4.01211 10.7703 28.5917 -2.91847 10.1755 -3.44281 9.21527 -0.0392112 -3.69499 -14.345 -10.4581 -8.21248 -2.19848 -10.4314 -1.93181 
35.548 86.456 -28.7932 90.7609 75.7769 89.2258 170.185 5.25494 101.672 -114.743 17.0178 0.273132 48.7269 -2.49005 6.74539 45.7481 -4.97297 5.12847 164.545 41.9357 76.7704 -50.885 -15.2006 6.88602 55.1736 4.83539 6.60308 37.322 -1.30221 1.69334 -0.353365 9.19049 -91.3437 8.51609 -1.29632 -2.65795 -3.15595 -1.41211 -2.59838 -25.6749 -0.437423 -2.92431 -5.66222 -0.437421 -2.92432 107.105 -42.4777 -73.6035 1.22502 -0.859515 33.4407 0.358154 9.60855 -0.864356 0.608033 -0.01872 -4.32995 -79.3507 -38.8257 94.155 -25.2695 2.66985 43.0286 -1.44772 18.9328 -1.92313 6.6948 0.0454022 -2.38605 -7.19367 -8.73272 -2.92774 -1.19031 -8.53762 0.595472 
42.4321 81.9063 -35.5856 94.9711 65.2448 91.7598 169.309 35.4903 93.8283 -119.039 14.1259 -0.0381764 55.4835 1.92871 14.3559 52.0035 -6.41987 6.9339 160.926 42.1815 86.8452 -67.6957 -21.4506 6.92996 65.6983 -0.87004 5.91257 40.7801 -1.78212 2.89536 0.611642 10.2666 -92.099 6.31596 0.333474 -4.12878 -5.36168 0.151635 -4.13945 -27.8489 1.55789 -3.83852 -7.83624 1.55789 -3.83853 100.819 -52.0392 -84.1894 -7.07385 -5.1946 4.50733 5.42109 9.02969 -11.0264 -5.32149 -0.0823088 -3.80877 -79.6594 -47.6449 94.0435 -51.2595 11.0621 22.073 11.2869 38.1984 -19.8971 2.88108 -0.0261204 -2.43739 -1.57607 -6.83429 -4.77267 -1.916 -6.11444 3.74956 
48.9375 85.6776 -41.8146 97.227 54.7109 85.9866 174.391 48.1752 89.5496 -80.7013 10.6596 2.28612 63.1682 5.55199 12.9087 53.6217 -6.93051 5.98983 169.616 33.4699 86.9334 -65.5567 -15.9369 1.73234 69.9335 -3.38519 6.43133 43.1785 -2.0459 2.26659 1.14589 10.4446 -90.9362 5.99647 1.89573 -1.89741 -5.67459 1.8104 -1.97898 -28.2153 2.37826 -1.23989 -8.20265 2.37827 -1.23989 94.8302 -51.218 -93.4121 -7.87919 -7.04602 -20.3899 6.25897 7.15841 -31.8117 -2.98243 -0.0160688 -5.6455 -83.3433 -49.0552 88.4292 -36.1301 18.9785 2.62092 22.3675 35.7246 -32.9975 12.5758 0.794485 2.3682 -1.40939 -4.731 -2.8948 -3.86995 -4.33603 3.32348 
